<?xml version="1.0" encoding="UTF-8" standalone="no"?>
<!-- Created with Inkscape (http://www.inkscape.org/) -->

<svg
   xmlns:dc="http://purl.org/dc/elements/1.1/"
   xmlns:cc="http://creativecommons.org/ns#"
   xmlns:rdf="http://www.w3.org/1999/02/22-rdf-syntax-ns#"
   xmlns:svg="http://www.w3.org/2000/svg"
   xmlns="http://www.w3.org/2000/svg"
   xmlns:sodipodi="http://sodipodi.sourceforge.net/DTD/sodipodi-0.dtd"
   xmlns:inkscape="http://www.inkscape.org/namespaces/inkscape"
   width="25"
   height="25"
   viewBox="0 0 25 25"
   id="svg2"
   version="1.1"
   inkscape:version="0.92.0 r"
   sodipodi:docname="shift.svg"
   inkscape:export-filename="/home/ossman/devel/noVNC/images/drag.png"
   inkscape:export-xdpi="90"
   inkscape:export-ydpi="90">
  <defs
     id="defs4" />
  <sodipodi:namedview
     id="base"
     pagecolor="#959595"
     bordercolor="#666666"
     borderopacity="1.0"
     inkscape:pageopacity="0"
     inkscape:pageshadow="2"
     inkscape:zoom="11.313709"
     inkscape:cx="23.891799"
     inkscape:cy="9.1273585"
     inkscape:document-units="px"
     inkscape:current-layer="text5290"
     showgrid="true"
     units="px"
     inkscape:snap-bbox="true"
     inkscape:bbox-paths="true"
     inkscape:bbox-nodes="true"
     inkscape:snap-bbox-edge-midpoints="true"
     inkscape:object-paths="true"
     showguides="true"
     inkscape:window-width="1440"
     inkscape:window-height="851"
     inkscape:window-x="0"
     inkscape:window-y="1"
     inkscape:window-maximized="1"
     inkscape:snap-smooth-nodes="true"
     inkscape:object-nodes="true"
     inkscape:snap-intersection-paths="true"
     inkscape:snap-nodes="true"
     inkscape:snap-global="true"
     inkscape:snap-text-baseline="true">
    <inkscape:grid
       type="xygrid"
       id="grid4136" />
  </sodipodi:namedview>
  <metadata
     id="metadata7">
    <rdf:RDF>
      <cc:Work
         rdf:about="">
        <dc:format>image/svg+xml</dc:format>
        <dc:type
           rdf:resource="http://purl.org/dc/dcmitype/StillImage" />
        <dc:title></dc:title>
      </cc:Work>
    </rdf:RDF>
  </metadata>
  <g
     inkscape:label="Layer 1"
     inkscape:groupmode="layer"
     id="layer1"
     transform="translate(0,-1027.3622)">
    <g
       style="font-style:normal;font-variant:normal;font-weight:bold;font-stretch:normal;font-size:48px;line-height:125%;font-family:'DejaVu Sans';-inkscape-font-specification:'Sans Bold';text-align:start;letter-spacing:0px;word-spacing:0px;writing-mode:lr-tb;text-anchor:start;fill:#000000;fill-opacity:1;stroke:none;stroke-width:1px;stroke-linecap:butt;stroke-linejoin:miter;stroke-opacity:1"
       id="text5290">
      <path
         d="m 8.3476562,1026.3613 v 7.5977 h 1.7480468 v -2.6895 c 0,-0.498 0.104167,-0.888 0.3125,-1.1679 0.208333,-0.2832 0.494792,-0.4239 0.859375,-0.4239 0.14974,0 0.283203,0.032 0.400391,0.098 0.117187,0.062 0.210937,0.1497 0.279297,0.2637 0.05208,0.085 0.08789,0.2155 0.107422,0.3945 0.02279,0.1791 0.0332,0.5078 0.0332,0.9863 v 1.9981 0.541 h 1.757812 v -3.3301 c 0,-0.7389 -0.163411,-1.302 -0.492187,-1.6894 -0.325521,-0.3874 -0.804037,-0.5801 -1.435547,-0.5801 -0.358073,0 -0.686198,0.076 -0.982422,0.2285 -0.296224,0.1498 -0.576172,0.3841 -0.839844,0.7031 v -2.9297 z m 7.1289058,0 v 1.4258 h 1.748047 v -1.4258 z m 5.699219,0 c -0.696614,0 -1.210937,0.1432 -1.542969,0.4297 -0.332031,0.2832 -0.498046,0.7227 -0.498046,1.3184 v 0.3808 h -0.869141 v 1.25 h 0.869141 v 4.2188 h 1.748046 v -4.2188 h 1.494141 v -1.25 h -1.494141 v -0.3808 c 0,-0.2214 0.04883,-0.375 0.146485,-0.4629 0.09766,-0.091 0.270182,-0.1367 0.517578,-0.1367 h 0.966797 v -1.1485 z m -17.4316404,0.1758 c -0.8789062,0 -1.5527344,0.1953 -2.0214844,0.5859 -0.46875,0.3906 -0.703125,0.9499 -0.703125,1.6758 10e-8,0.5794 0.1666667,1.0391 0.5019532,1.3809 0.3385416,0.3418 0.8723958,0.5918 1.6015625,0.748 l 0.7285156,0.1602 c 0.4427083,0.098 0.7363281,0.2083 0.8828125,0.332 0.1497396,0.1237 0.2246094,0.2995 0.2246094,0.5274 0,0.2539 -0.1080729,0.4492 -0.3261719,0.5859 -0.2180989,0.1367 -0.5332031,0.2051 -0.9433594,0.2051 -0.4036458,0 -0.8235677,-0.062 -1.2597656,-0.1856 -0.4329427,-0.1269 -0.8821614,-0.3131 -1.3476563,-0.5605 v 1.5859 c 0.4654949,0.1726 0.9309896,0.3028 1.3964844,0.3907 0.4654948,0.088 0.9303385,0.1328 1.3925782,0.1328 0.9798176,0 1.7063801,-0.1954 2.1816406,-0.586 0.4785156,-0.3938 0.71875,-0.9928 0.71875,-1.7968 0,-0.612 -0.171875,-1.084 -0.5136719,-1.4161 -0.3417969,-0.332 -0.9179688,-0.5794 -1.7285156,-0.7422 l -0.8007813,-0.1621 c -0.3808594,-0.078 -0.6445313,-0.1699 -0.7910156,-0.2773 -0.1432292,-0.1107 -0.2148438,-0.2637 -0.2148438,-0.459 0,-0.2604 0.1074219,-0.4524 0.3222657,-0.5762 0.2148437,-0.1236 0.546875,-0.1855 0.9960937,-0.1855 0.3385417,0 0.6992187,0.046 1.0800782,0.1367 0.3808593,0.091 0.7714843,0.2252 1.171875,0.4043 v -1.541 c -0.4524741,-0.1204 -0.8912761,-0.2109 -1.3144532,-0.2695 -0.423177,-0.062 -0.8339843,-0.094 -1.234375,-0.094 z m 19.6875004,0.4004 v 1.5527 H 22.5625 v 1.25 h 0.869141 v 2.3203 c 0,0.6902 0.143228,1.1791 0.429687,1.4688 0.289713,0.2864 0.778646,0.4297 1.46875,0.4297 h 1.5 v -1.25 h -0.898437 c -0.299479,0 -0.500651,-0.043 -0.601563,-0.1309 -0.100911,-0.091 -0.15039,-0.2636 -0.15039,-0.5176 v -2.3203 h 1.800781 v -1.25 h -1.800781 v -1.5527 z m -7.955079,1.5527 v 5.4688 h 1.748047 v -5.4688 z"
         id="path3712"
         style="font-style:normal;font-variant:normal;font-weight:bold;font-stretch:normal;font-size:10px;line-height:25px;font-family:sans-serif;-inkscape-font-specification:'sans-serif Bold';letter-spacing:0px;word-spacing:0px;fill:#ffffff;fill-opacity:1;stroke:none"
         inkscape:original="M 8.3476562 1026.3613 L 8.3476562 1033.959 L 10.095703 1033.959 L 10.095703 1031.2695 C 10.095703 1030.7715 10.19987 1030.3815 10.408203 1030.1016 C 10.616536 1029.8184 10.902995 1029.6777 11.267578 1029.6777 C 11.417318 1029.6777 11.550781 1029.7101 11.667969 1029.7754 C 11.785156 1029.8372 11.878906 1029.9251 11.947266 1030.0391 C 11.999347 1030.1237 12.035154 1030.2546 12.054688 1030.4336 C 12.077474 1030.6127 12.087891 1030.9414 12.087891 1031.4199 L 12.087891 1033.418 L 12.087891 1033.959 L 13.845703 1033.959 L 13.845703 1030.6289 C 13.845703 1029.89 13.682292 1029.3269 13.353516 1028.9395 C 13.027995 1028.5521 12.549479 1028.3594 11.917969 1028.3594 C 11.559896 1028.3594 11.231771 1028.435 10.935547 1028.5879 C 10.639323 1028.7377 10.359375 1028.972 10.095703 1029.291 L 10.095703 1026.3613 L 8.3476562 1026.3613 z M 15.476562 1026.3613 L 15.476562 1027.7871 L 17.224609 1027.7871 L 17.224609 1026.3613 L 15.476562 1026.3613 z M 21.175781 1026.3613 C 20.479167 1026.3613 19.964844 1026.5045 19.632812 1026.791 C 19.300781 1027.0742 19.134766 1027.5137 19.134766 1028.1094 L 19.134766 1028.4902 L 18.265625 1028.4902 L 18.265625 1029.7402 L 19.134766 1029.7402 L 19.134766 1033.959 L 20.882812 1033.959 L 20.882812 1029.7402 L 22.376953 1029.7402 L 22.376953 1028.4902 L 20.882812 1028.4902 L 20.882812 1028.1094 C 20.882812 1027.888 20.93164 1027.7344 21.029297 1027.6465 C 21.126953 1027.5553 21.299479 1027.5098 21.546875 1027.5098 L 22.513672 1027.5098 L 22.513672 1026.3613 L 21.175781 1026.3613 z M 3.7441406 1026.5371 C 2.8652344 1026.5371 2.1914062 1026.7324 1.7226562 1027.123 C 1.2539062 1027.5136 1.0195312 1028.0729 1.0195312 1028.7988 C 1.0195313 1029.3782 1.1861979 1029.8379 1.5214844 1030.1797 C 1.860026 1030.5215 2.3938802 1030.7715 3.1230469 1030.9277 L 3.8515625 1031.0879 C 4.2942708 1031.1856 4.5878906 1031.2962 4.734375 1031.4199 C 4.8841146 1031.5436 4.9589844 1031.7194 4.9589844 1031.9473 C 4.9589844 1032.2012 4.8509115 1032.3965 4.6328125 1032.5332 C 4.4147136 1032.6699 4.0996094 1032.7383 3.6894531 1032.7383 C 3.2858073 1032.7383 2.8658854 1032.6764 2.4296875 1032.5527 C 1.9967448 1032.4258 1.5475261 1032.2396 1.0820312 1031.9922 L 1.0820312 1033.5781 C 1.5475261 1033.7507 2.0130208 1033.8809 2.4785156 1033.9688 C 2.9440104 1034.0566 3.4088541 1034.1016 3.8710938 1034.1016 C 4.8509114 1034.1016 5.5774739 1033.9062 6.0527344 1033.5156 C 6.53125 1033.1218 6.7714844 1032.5228 6.7714844 1031.7188 C 6.7714844 1031.1068 6.5996094 1030.6348 6.2578125 1030.3027 C 5.9160156 1029.9707 5.3398437 1029.7233 4.5292969 1029.5605 L 3.7285156 1029.3984 C 3.3476562 1029.3203 3.0839843 1029.2285 2.9375 1029.1211 C 2.7942708 1029.0104 2.7226562 1028.8574 2.7226562 1028.6621 C 2.7226562 1028.4017 2.8300781 1028.2097 3.0449219 1028.0859 C 3.2597656 1027.9623 3.5917969 1027.9004 4.0410156 1027.9004 C 4.3795573 1027.9004 4.7402343 1027.946 5.1210938 1028.0371 C 5.5019531 1028.1282 5.8925781 1028.2623 6.2929688 1028.4414 L 6.2929688 1026.9004 C 5.8404947 1026.78 5.4016927 1026.6895 4.9785156 1026.6309 C 4.5553386 1026.5689 4.1445313 1026.5371 3.7441406 1026.5371 z M 23.431641 1026.9375 L 23.431641 1028.4902 L 22.5625 1028.4902 L 22.5625 1029.7402 L 23.431641 1029.7402 L 23.431641 1032.0605 C 23.431641 1032.7507 23.574869 1033.2396 23.861328 1033.5293 C 24.151041 1033.8157 24.639974 1033.959 25.330078 1033.959 L 26.830078 1033.959 L 26.830078 1032.709 L 25.931641 1032.709 C 25.632162 1032.709 25.43099 1032.666 25.330078 1032.5781 C 25.229167 1032.487 25.179688 1032.3145 25.179688 1032.0605 L 25.179688 1029.7402 L 26.980469 1029.7402 L 26.980469 1028.4902 L 25.179688 1028.4902 L 25.179688 1026.9375 L 23.431641 1026.9375 z M 15.476562 1028.4902 L 15.476562 1033.959 L 17.224609 1033.959 L 17.224609 1028.4902 L 15.476562 1028.4902 z "
         inkscape:radius="0"
         sodipodi:type="inkscape:offset"
         transform="matrix(0.84825459,0,0,0.92151467,0.8975878,90.555205)" />
    </g>
  </g>
</svg>
